<?xml version="1.0" encoding="utf-8"?>
<!-- Generator: Adobe Illustrator 16.0.0, SVG Export Plug-In . SVG Version: 6.00 Build 0)  -->
<!DOCTYPE svg PUBLIC "-//W3C//DTD SVG 1.1//EN" "http://www.w3.org/Graphics/SVG/1.1/DTD/svg11.dtd">
<svg version="1.1" id="Layer_1" xmlns="http://www.w3.org/2000/svg" xmlns:xlink="http://www.w3.org/1999/xlink" x="0px" y="0px"
	 width="601.468px" height="569.971px" viewBox="0 0 601.468 569.971" enable-background="new 0 0 601.468 569.971"
	 xml:space="preserve">
<path stroke="#000000" stroke-width="10" stroke-miterlimit="10" d="M503.639,205.138c7.56,2.785,10.287,12.538,10.93,20.896
	c0.644,8.358-1.285,16.395,0,19.932c1.287,3.536,14.789,13.181,19.933,18.002s18.003,17.361,18.003,20.253
	s-4.501,18.967-12.538,21.217c-8.037,2.251-30.219,8.037-39.541,8.68c-9.323,0.643-33.435,0-40.507,2.572
	c-7.073,2.571-20.575,13.502-24.433,20.253c-3.858,6.751-19.288,46.615-19.288,46.615l-5.145,20.574c0,0,8.681-13.823,9.966-21.218
	c1.286-7.394,3.451-7.241,1.929-9.967c-1.519-2.724-0.964-9.001,3.537-10.286c4.5-1.286,8.68-1.607,9.966,2.572
	c1.285,4.179,0.643,9.644-1.607,11.251s-3.537,3.857-3.537,3.857s-1.607,9.324-3.536,13.181c-1.929,3.857-8.358,14.467-10.93,18.003
	c-2.572,3.537-5.787,8.037-5.787,8.037s10.931,4.822,16.717,6.751c5.787,1.929,16.074,4.179,20.253,5.144
	c4.18,0.965,14.146,4.18,16.074,2.894c1.93-1.285,7.395-4.501,10.288-4.501c2.893,0,9.966,1.607,9.645,6.751
	c-0.321,5.145-2.571,9.645-7.395,10.931c-4.822,1.286-2.571,1.286-5.144,0s-3.215-2.894-3.215-2.894s-10.608-0.964-13.181-1.285
	s-17.682-3.858-20.896-4.501c-3.216-0.644-12.86-2.894-16.718-1.929c-3.857,0.964-6.751,1.285-6.43,2.893
	c0.321,1.608,2.25,9.646,2.894,13.504c0.643,3.858,4.501,13.823,4.501,13.823s6.43,3.536,7.072,6.108
	c0.644,2.572,0,10.287-2.572,12.216c-2.571,1.929-6.75,4.18-9.966,1.607c-3.214-2.571-4.5-7.072-3.857-10.93
	c0.644-3.858,0.644-3.215-0.16-6.751s-1.77-6.752-3.376-9.966c-1.607-3.215-4.501-8.038-4.501-9.003c0-0.964,0-3.537,0-3.537
	s-0.964,1.286-6.43-1.285c-5.465-2.571-5.787-4.822-7.072-10.608c-1.286-5.787-2.571-9.645-4.822-11.252
	c-2.251-1.608-5.144-7.716-4.501-12.217c0.644-4.5,2.894-4.821,2.25-8.037c-0.643-3.214-3.214-11.572-5.464-16.073
	s-3.536-9.645-5.465-10.931c-1.929-1.285-6.108-6.43-1.929-9.322c4.179-2.895,6.75-1.286,8.357,0.964s0.321,4.821,1.286,7.395
	c0.964,2.571,8.68,18.002,9.966,21.859c1.285,3.858,4.18,8.358,5.144,9.646c0.965,1.286,3.215,5.465,7.073,4.179
	c3.856-1.286,6.429-2.893,6.429-2.893l1.93-2.573c0,0,2.893-12.216,2.25-25.718c-0.644-13.502-2.25-25.206-4.18-33.339
	c-1.929-8.132-0.965-13.275-8.358-8.775c-7.394,4.502-24.481,18.324-31.69,21.219c-7.208,2.893-33.89,12.858-52.857,9.322
	c-18.967-3.535-43.399-11.251-49.186-14.467c-5.787-3.214-33.755-18.967-40.507-14.146c-6.75,4.823-14.466,9.324-12.216,20.897
	c2.25,11.572,11.895,32.147,13.824,38.256c1.929,6.107,8.358,32.791,8.037,36.97c-0.322,4.179-2.25,17.361-7.394,17.04
	c-5.144-0.322-19.932,5.465-24.754,7.394c-4.822,1.929-16.396,7.395-18.646,10.287c-2.25,2.895-1.929,8.037,1.929,8.358
	c3.858,0.321,21.218-8.358,25.076-12.858c3.857-4.501,3.658-5.07,4.822-8.037c1.164-2.968,11.895-7.396,13.502-1.286
	c1.607,6.107,1.286,8.037-1.929,9.966c-3.215,1.929-5.466,2.572-7.716,5.465c-2.25,2.894-7.073,6.43-9.644,8.358
	c-2.572,1.93-8.358,6.108-3.858,11.252s20.575,9.002,24.111,10.287c3.536,1.286,15.752,4.181,17.038,3.536
	c1.286-0.643,6.108-5.786,10.288-4.179s9.323,5.466,6.108,10.608c-3.214,5.145-7.394,4.18-10.287,3.537s-2.894-0.643-2.894-0.643
	l-1.607-1.608c0,0-4.822,0.643-7.395,0.321c-2.572-0.321-14.788-1.929-19.289-3.214c-4.501-1.286-10.93-3.215-15.109-1.607
	s-16.717,6.43-18.324,9.322c-1.607,2.894,1.929,11.252,2.572,15.432c0.643,4.179-0.964,8.037,0,9.001
	c0.964,0.965,4.179,5.787,1.607,9.323c-2.571,3.535-7.953,6.43-10.406,4.18c-2.452-2.251-6.311-4.823-5.667-9.646
	c0.643-4.821,5.465-9.001,5.465-9.001s-1.607-3.857-2.572-6.107c-0.964-2.251-1.428-9.646-2.964-10.932
	c-1.537-1.285-7.645-5.785-9.252-8.358c-1.607-2.571-19.61-12.858-26.361-16.717c-6.751-3.857-25.075-17.038-28.612-20.574
	c-3.536-3.537-19.932-15.109-25.397-20.575c-5.465-5.466-24.754-19.611-23.79-25.076c0.965-5.465-0.643-20.253,7.716-18.003
	s5.465,3.215,10.931,5.145c5.465,1.929,41.149,2.571,44.364,4.5c3.214,1.929,9.644,6.751,9.644,6.751s-4.5-7.072-2.572-10.287
	c1.929-3.216,6.43-4.18,9.645-0.321c3.214,3.857,5.144,9.966,4.822,12.858c-0.322,2.895,0.321,5.787,0.321,5.787
	s23.79,14.146,32.148,14.146s21.218,0.643,22.825-3.858c1.607-4.5,1.286-7.395-0.643-9.966
	c-1.929-2.571-24.111-36.327-26.683-40.828c-2.572-4.5-28.29-53.365-28.933-62.366c-0.644-9.001,0.964-20.947-0.644-24.137
	c-1.607-3.19-5.144-5.439-5.144-5.439s-5.787-3.857-7.073-6.751c-1.286-2.893-1.286-7.716,0.644-9.645
	c1.929-1.929,1.929-1.929,1.929-1.929s-0.964-7.715-1.929-9.966c-0.965-2.25-2.25-9.965-3.215-12.538
	c-0.964-2.571-2.572-7.715-2.572-7.715s-2.894,10.609-5.786,10.93c-2.894,0.321-9.001-3.858-12.859-11.573
	c-3.858-7.716-15.431-40.828-17.682-45.65c-2.25-4.822-7.715-18.325-9.645-21.54c-1.928-3.214-3.857-8.037-3.536-11.894
	c0.321-3.858-2.893-8.681-1.929-18.646c0.964-9.966-3.215-26.04-6.43-33.112c-3.214-7.073-9.323-22.825-20.253-33.113
	C38.139,79.761,35.888,75.26,33.638,74.296c-2.25-0.965-9.966-3.858-10.609-9.645c-0.643-5.787,3.536-10.609,6.43-10.609
	c2.893,0,9.001,2.25,10.608,6.43c1.608,4.179,1.929,6.108,3.215,7.715c1.286,1.607,11.895,16.717,16.074,17.039
	c4.179,0.321,16.074-1.929,16.717-6.43c0.643-4.5,0.643-8.68-5.465-18.967C64.5,49.542,59.356,38.611,58.071,36.04
	c-1.286-2.572-8.68-6.429-9.002-9.966c-0.321-3.536,2.25-9.323,8.681-8.358c6.429,0.964,8.358,2.572,9.001,7.394
	c0.643,4.822-0.964,5.787,0.643,8.358c1.607,2.572,9.966,19.932,12.538,25.076c2.572,5.144,10.287,21.217,16.396,25.075
	c6.108,3.858,12.216,8.037,15.109,6.429c2.894-1.607,11.573-8.358,11.895-10.287c0.322-1.929-0.321-7.073,2.572-8.68
	c2.894-1.608,9.323-3.215,9.966,0c0.643,3.215,2.893,5.786-2.25,9.001c-5.144,3.215-5.465,2.893-8.037,5.144
	c-2.572,2.25-10.931,15.109-11.252,24.432c-0.322,9.323,1.286,18.968,6.108,20.253c4.822,1.286,11.251-0.321,11.894-3.215
	c0.644-2.894,3.215-9.001,5.787-8.68c2.571,0.322,8.037,2.894,5.786,6.43c-2.25,3.536-5.786,3.857-11.895,9.645
	c-6.108,5.787-15.431,15.109-15.109,22.182c0.321,7.072,4.501,10.93,10.287,10.609c5.787-0.321,11.573-5.787,13.502-6.43
	c1.929-0.643,8.037,0.964,9.645,3.215c1.607,2.25-0.322,6.751-5.144,7.394c-4.823,0.643-4.823,2.893-8.359,2.571
	c-3.536-0.321-14.145-1.286-19.288,1.608c-5.144,2.893-12.538,8.358-10.609,24.111c1.929,15.752,0.965,19.61,10.609,24.753
	c9.644,5.144,16.074,10.93,16.396,7.394c0.321-3.537,7.394-29.897,9.965-37.613c2.572-7.715,17.36-31.183,21.539-37.292
	c4.179-6.108,7.716-8.68,9.323-11.251s3.536-5.465,9.323-5.144s20.575,5.787,22.825,11.252s1.607,26.683,0.321,36.649
	c-1.286,9.965-4.179,22.182-5.144,28.611s-2.894,20.574,0,24.432s10.288,9.966,14.146,11.252c3.857,1.286,16.073-3.858,21.86-7.715
	c5.786-3.858,21.539-8.68,28.29-10.609c6.751-1.929,28.611-6.751,40.827-7.073c12.217-0.321,48.222-0.643,56.581,0
	c8.358,0.643,22.181,2.572,25.073-1.929c2.895-4.501,3.537-12.859,0.644-16.395c-2.894-3.537-21.538-30.862-22.502-35.685
	s-1.929-8.68,1.286-11.573c3.214-2.893,3.214-2.893,3.214-2.893s10.286-20.575,15.752-27.326
	c5.465-6.751,26.039-23.146,30.862-26.361c4.821-3.215,11.572-10.288,14.145-12.859s12.216-11.573,14.145-14.145
	s5.787-7.716,6.108-10.93c0.321-3.215,6.108-36.327,5.787-39.542c-0.321-3.215-4.501-9.644-2.572-12.538
	c1.93-2.893,6.108-7.073,10.288-5.465c4.179,1.607,11.251,7.073,8.68,12.216c-2.572,5.144-3.858,6.75-5.787,10.287
	c-1.929,3.536-4.18,16.396-4.18,21.217c0,4.823-1.929,14.146-2.571,17.36c-0.643,3.215-0.643,7.395,1.286,8.358
	c1.93,0.965,5.144-1.286,8.358-7.394c3.215-6.108,7.715-15.752,9.646-19.932c1.928-4.179,8.357-13.502,9.001-15.11
	c0.643-1.607,0-3.214,0-5.786c0-2.572,1.607-7.716,4.821-9.323c3.215-1.607,6.751-1.607,10.287,2.25
	c3.537,3.857,4.501,9.323,0.643,11.573c-3.856,2.25-6.429,3.536-8.035,6.108c-1.608,2.571-9.324,18.324-12.539,24.432
	c-3.214,6.108-9.644,18.967-11.894,21.861c-2.251,2.893-6.108,2.893-6.43,7.715c-0.322,4.823,0,8.037,4.821,8.037
	c4.822,0,9.645-3.214,15.431-4.179c5.787-0.964,16.718,0.321,17.36-1.607c0.643-1.928,0.643-3.857,4.501-2.893
	c3.857,0.965,6.751,3.858,5.466,6.751c-1.287,2.894-1.93,6.429-6.108,6.429c-4.18,0-4.18-2.25-7.073-2.571
	c-2.893-0.321-13.181,3.215-17.681,4.179c-4.502,0.964-14.146,3.858-18.646,5.465c-4.501,1.607-11.896,2.251-11.253,6.751
	c0.644,4.5,5.145,12.538,7.073,14.788c1.929,2.25,9.322,11.895,9.322,11.895s4.18-1.929,5.466,0.321
	c1.285,2.25,3.535,7.394-0.321,8.037c-3.858,0.643-6.752,0-8.037-2.25c-1.286-2.25-14.789-16.717-17.039-18.003
	c-2.251-1.286-6.108-1.607-10.609-3.536c-4.5-1.929-2.571-5.144-6.75-5.144c-4.18,0-7.072,3.536-10.931,9.645
	c-3.857,6.108-8.358,17.039-12.537,22.503c-4.18,5.465-11.573,15.752-9.323,28.933s9.966,23.146,18.646,27.004
	c8.68,3.857,38.899,4.822,44.043,6.108s3.536,3.858,5.144,1.286c1.607-2.572,8.358-12.859,15.432-15.753
	C490.781,204.495,497.531,202.887,503.639,205.138z"/>
<path display="none" fill="#FFFFFF" stroke="#FFFFFF" stroke-miterlimit="10" d="M391.453,236.146c0,0-4.654-23.083,9.893-17.75
	c10.766,3.946,8.439,17.75,8.439,17.75H391.453"/>
</svg>
